Palermo oder Wolfsburg

173 min  -  Drama
Country: Switzerland | West Germany
Language: German | Italian
Subtitles: English, Portuguese, German (for italian parts)

This film begins in the town of Palermo, where the film's central figure, Nicola, is a young victim of Sicily's high rate of unemployment. He decides to leave Palermo for Wolfsburg in Germany in search of employment. Along with Fassbinder's Angst essen Seele auf (1973), Schroeter's film becomes one of a handful of films to broach the subject of the difficulties foreigners faced in their attempts to integrate into German society without the support of the family and community structures they had left behind in their home countries. Like Regno di Napoli, Palermo oder Wolfsburg follows a chronological structure, but Schroeter's innovation in this film is to divide the narrative into three distinct sections or acts, each having their own particular style. Palermo oder Wolfsburg won the prestigious Golden Bear at the Berlin Film Festival in 1980, notably the first Golden Bear ever awarded to a German director.

Screenshots:
 
http://i1238.photobucket.com/albums/ff491/pamis2046/Palermo01_zpsad9a3129.jpg
 
http://i1238.photobucket.com/albums/ff491/pamis2046/Palermo02_zpsb05168ea.jpg
 
http://i1238.photobucket.com/albums/ff491/pamis2046/Palermo03_zps81af022c.jpg
 
http://i1238.photobucket.com/albums/ff491/pamis2046/Palermo04_zps2cee4d27.jpg
 
http://i1238.photobucket.com/albums/ff491/pamis2046/Palermo05_zps60cccf05.jpg
 
http://i1238.photobucket.com/albums/ff491/pamis2046/Palermo06_zps5f9f2aaa.jpg
 
http://i1238.photobucket.com/albums/ff491/pamis2046/Palermo07_zps46e6f3f5.jpg
 
http://i1238.photobucket.com/albums/ff491/pamis2046/Palermo08_zpsf5bd054b.jpg

Format : AVI 
Format/Info : Audio Video Interleave 
Format profile : OpenDML 
File size : 2.04 GiB 
Duration : 2h 53mn 
Overall bit rate : 1 683 Kbps 
Writing application : VirtualDubMod 1.5.10.2 (build 2540/release) 

Format : MPEG-4 Visual 
Format profile : Advanced Simple@L5 
Format settings, BVOP : 2 
Format settings, QPel : Não 
Format settings, GMC : Sem warppoints 
Format settings, Matrix : Default (MPEG) 
Codec ID : XVID 
Codec ID/Hint : XviD 
Duration : 2h 53mn 
Bit rate : 1 479 Kbps 
Width : 704 pixels 
Height : 384 pixels 
Display aspect ratio : 1.85:1 
Frame rate : 23.976 fps 
Color space : YUV 
Chroma subsampling : 4:2:0 
Bit depth : 8 bits 
Scan type : Progressivo 
Bits/(Pixel*Frame) : 0.228 
Stream size : 1.79 GiB (88%) 
Writing library : XviD 1.2.1 (UTC 2008-12-04) 

Áudio 
ID : 1 
Format : AC-3 
Format/Info : Audio Coding 3 
Mode extension : CM (complete main) 
Format settings, Endianness : Big 
Codec ID : 2000 
Duration : 2h 53mn 
Bit rate mode : Constante 
Bit rate : 192 Kbps 
Channel(s) : 2 canais 
Channel positions : Front: L R 
Sampling rate : 48.0 KHz 
Bit depth : 16 bits 
Stream size : 238 MiB (11%) 
Alignment : Dividir entre as intercalações 
Interleave, duration : 42 ms (1.00 quadro de vídeo) 
Interleave, preload duration : 500 ms 
